<?xml version="1.0" standalone="no"?>
<!DOCTYPE svg PUBLIC "-//W3C//DTD SVG 20010904//EN"
 "http://www.w3.org/TR/2001/REC-SVG-20010904/DTD/svg10.dtd">
<svg version="1.0" xmlns="http://www.w3.org/2000/svg"
 width="568.000000pt" height="753.000000pt" viewBox="0 0 568.000000 753.000000"
 preserveAspectRatio="xMidYMid meet">

<g transform="translate(0.000000,753.000000) scale(0.100000,-0.100000)"
fill="#000000" stroke="none">
<path d="M2833 7460 c-28 -5 -82 -21 -120 -35 -37 -14 -132 -44 -210 -65 -459
-127 -674 -262 -877 -553 -172 -247 -268 -536 -356 -1072 -58 -350 -73 -597
-50 -803 22 -202 92 -376 186 -469 56 -54 66 -73 37 -73 -44 0 -154 -94 -207
-178 -78 -124 -76 -355 4 -552 10 -25 21 -83 24 -130 14 -183 43 -300 111
-448 42 -89 46 -105 34 -117 -8 -7 -111 -64 -229 -125 -240 -125 -286 -154
-427 -271 -110 -90 -97 -75 -249 -305 -125 -190 -145 -213 -200 -233 -88 -31
-304 -142 -304 -156 0 -8 3 -15 6 -15 3 0 75 34 160 77 85 42 157 73 160 70 4
-3 -15 -39 -42 -79 -45 -68 -116 -191 -173 -299 -16 -32 -38 -53 -67 -70 -24
-13 -44 -30 -44 -38 0 -12 3 -12 12 -3 15 15 48 16 48 1 0 -7 -14 -34 -30 -61
-17 -26 -30 -61 -30 -76 l0 -27 20 30 c43 62 84 132 125 210 55 106 134 245
181 322 154 247 219 345 243 365 12 10 21 25 21 33 0 8 3 15 8 15 4 0 20 26
36 58 37 71 61 92 98 85 17 -3 28 -1 28 6 0 12 71 51 95 51 8 0 15 7 15 16 0
19 -32 11 -72 -19 -15 -11 -31 -18 -34 -14 -9 9 73 83 126 114 25 15 47 30 50
34 8 11 120 73 280 155 58 30 123 65 145 78 85 52 219 126 221 123 2 -1 -8
-25 -21 -52 -13 -28 -26 -66 -30 -86 -4 -20 -24 -58 -46 -84 -38 -46 -56 -102
-24 -75 8 6 17 20 20 31 4 10 11 19 16 19 17 0 9 -27 -16 -50 -14 -13 -25 -29
-25 -35 0 -7 -11 -29 -25 -49 -30 -45 -31 -60 -5 -88 15 -16 20 -18 20 -7 0 8
-5 20 -11 26 -8 8 -4 25 16 62 27 49 52 70 41 34 -3 -10 -15 -72 -26 -137 -12
-66 -23 -123 -26 -128 -29 -47 -53 -352 -34 -433 7 -27 16 -122 20 -210 8
-154 24 -364 35 -453 2 -24 0 -52 -5 -63 -8 -13 -6 -34 4 -71 8 -29 18 -82 21
-118 10 -98 12 -310 3 -310 -5 0 -8 8 -8 18 0 21 -262 282 -284 282 -8 0 37
-52 101 -116 83 -84 112 -119 102 -125 -9 -5 -6 -11 14 -20 31 -14 35 -29 8
-29 -24 0 -46 19 -120 107 -53 63 -101 105 -101 89 0 -3 15 -20 33 -38 38 -39
87 -102 87 -113 0 -4 -12 -4 -27 -1 -16 4 -44 9 -63 12 -33 5 -94 19 -132 30
-10 3 -18 1 -18 -5 0 -6 10 -11 23 -11 13 0 28 -5 34 -11 6 -6 35 -13 64 -16
30 -2 89 -19 132 -38 43 -18 86 -31 98 -28 12 4 29 -3 43 -16 21 -20 24 -34
30 -134 10 -161 16 -232 26 -314 5 -40 7 -85 4 -100 -3 -15 -1 -54 4 -85 l9
-58 -272 0 -273 0 -15 57 c-150 570 -187 734 -187 841 0 38 5 64 13 69 6 4 48
10 92 13 73 5 80 7 77 25 -5 30 -33 49 -177 119 -172 84 -212 102 -295 130
-77 25 -96 24 -205 -12 -116 -39 -164 -52 -190 -52 -14 0 -33 -4 -43 -9 -9 -6
-29 -12 -44 -16 -16 -3 -28 -12 -28 -21 0 -11 6 -13 21 -9 19 6 20 4 14 -27
-4 -18 -14 -45 -21 -60 -17 -32 -19 -98 -3 -98 14 0 189 141 189 153 0 4 -7
15 -15 23 -26 26 -17 43 28 54 23 7 76 23 117 36 41 13 86 24 100 23 31 0 113
-28 160 -53 l35 -19 -65 -31 c-44 -20 -59 -31 -46 -34 10 -2 23 1 29 7 6 6 18
11 27 11 9 0 27 11 39 24 22 23 24 24 59 9 54 -21 235 -113 246 -124 6 -5 -3
-9 -25 -9 -69 0 -109 -18 -126 -58 -14 -32 -14 -51 -4 -135 10 -92 34 -206 66
-322 7 -27 25 -99 39 -160 15 -60 40 -157 56 -215 16 -58 29 -111 30 -117 0
-9 -19 -13 -63 -13 l-63 0 -46 143 c-25 78 -60 171 -76 207 -31 68 -62 140
-62 146 0 2 35 4 78 6 94 4 99 22 6 26 -47 2 -73 -2 -90 -13 -22 -14 -23 -17
-9 -48 13 -29 64 -167 143 -384 l30 -83 -107 0 -106 0 -17 32 c-9 18 -31 70
-49 115 -18 46 -37 83 -41 83 -4 0 -8 7 -8 15 0 22 -47 110 -71 131 -19 17
-20 17 -13 -1 4 -10 17 -37 29 -59 45 -83 54 -103 91 -196 20 -52 41 -100 46
-107 13 -16 0 -18 -111 -15 -82 3 -99 6 -94 18 7 19 0 18 -24 -3 -17 -15 -36
-17 -114 -15 l-95 3 -16 62 c-17 67 -30 121 -55 234 -11 49 -20 73 -30 73 -9
0 -12 -6 -9 -17 3 -10 10 -38 15 -63 9 -40 34 -147 60 -252 l9 -38 -44 0 c-24
0 -44 -4 -44 -10 0 -7 953 -10 2840 -10 1984 0 2840 3 2840 11 0 6 -39 9 -110
8 -61 -1 -113 1 -116 3 -2 3 11 52 29 109 19 57 49 151 67 209 18 58 43 138
57 178 14 42 22 84 19 97 -3 13 -1 27 4 30 22 13 -10 32 -63 38 -57 6 -128 28
-252 76 -172 68 -195 80 -195 106 0 23 -29 69 -30 47 0 -7 5 -22 11 -34 6 -11
8 -22 5 -25 -2 -3 -33 4 -68 16 -35 11 -110 30 -168 42 -58 11 -106 22 -108
24 -13 12 14 67 43 89 40 31 86 33 185 11 36 -8 83 -17 105 -20 86 -12 160
-27 170 -35 6 -5 21 -8 35 -7 14 0 89 -10 168 -22 129 -21 146 -27 172 -52 16
-16 31 -29 35 -29 3 0 5 19 3 43 l-3 42 -100 17 c-55 9 -127 21 -160 27 -33 5
-168 28 -300 51 -200 34 -246 39 -277 30 -40 -11 -78 -50 -105 -107 -16 -34
-16 -36 3 -50 10 -7 34 -18 54 -22 171 -44 252 -67 290 -84 41 -17 77 -33 135
-57 163 -66 203 -80 343 -119 50 -14 51 1 -18 -211 -26 -80 -67 -205 -90 -278
l-43 -132 -74 0 c-71 0 -73 1 -63 21 6 11 9 25 7 32 -3 7 -10 -3 -17 -20 -9
-25 -18 -33 -37 -33 -20 0 -24 4 -18 18 4 9 18 46 31 81 13 36 28 69 34 75 5
5 10 18 10 28 0 34 62 203 82 225 33 36 18 49 -64 56 -40 3 -104 15 -141 27
-60 19 -213 86 -289 126 -14 8 -31 14 -37 14 -18 0 -12 -15 10 -25 12 -6 21
-14 20 -18 -1 -5 4 -14 12 -20 16 -13 32 -117 18 -117 -13 0 -93 89 -140 157
-24 35 -48 60 -52 57 -16 -10 -9 -25 34 -68 23 -24 57 -63 75 -88 48 -67 91
-110 104 -102 10 6 4 107 -9 140 -9 25 33 16 129 -30 111 -52 141 -63 193 -71
81 -12 93 -16 98 -36 3 -11 -2 -34 -10 -52 -29 -58 -33 -67 -33 -77 0 -6 -8
-29 -19 -53 -10 -23 -24 -62 -31 -87 -9 -34 -27 -59 -72 -103 -34 -32 -64 -56
-68 -55 -12 5 86 170 115 195 30 26 31 33 7 33 -18 0 -52 -29 -52 -44 0 -4 -8
-20 -19 -34 -10 -15 -33 -55 -51 -89 l-32 -63 -297 0 -296 0 -19 98 c-10 53
-31 162 -47 242 -26 130 -37 192 -71 393 -7 42 -5 103 6 225 9 92 16 210 16
262 0 180 18 279 36 203 4 -16 29 -98 56 -183 64 -201 72 -230 93 -320 10 -41
24 -83 33 -92 10 -13 13 -34 10 -83 -3 -52 -1 -65 10 -65 15 0 14 -57 -4 -152
-12 -69 14 -41 30 31 20 87 20 142 1 167 -8 10 -15 38 -15 61 0 23 -7 69 -16
102 -17 66 -12 103 13 99 12 -2 20 10 28 42 15 59 93 232 108 242 7 4 25 8 40
8 16 0 26 4 22 10 -10 17 -61 11 -79 -9 -21 -23 -106 -190 -106 -208 0 -7 -5
-13 -11 -13 -7 0 -9 19 -5 58 3 31 8 97 12 145 7 99 21 123 63 113 14 -3 51
-9 81 -12 50 -5 53 -4 37 9 -10 9 -38 15 -62 15 -61 0 -84 9 -134 53 -24 22
-48 39 -52 39 -18 0 -8 -16 33 -51 38 -33 41 -39 28 -54 -10 -12 -16 -59 -20
-166 -5 -132 -11 -171 -24 -158 -2 2 -15 66 -27 143 -13 76 -30 146 -37 155
-11 14 -13 9 -8 -34 3 -27 9 -61 12 -75 4 -14 4 -22 -1 -18 -4 4 -29 73 -56
155 -27 81 -53 157 -58 168 -4 11 -16 43 -25 70 -79 224 -113 302 -127 288 -8
-8 -3 -36 21 -100 18 -48 46 -124 62 -168 l30 -80 -11 -160 c-6 -88 -17 -239
-24 -335 -20 -292 -18 -322 67 -780 50 -270 50 -271 35 -281 -21 -14 -149 -5
-159 10 -6 11 -8 11 -12 0 -4 -12 -104 -14 -584 -14 l-579 0 -7 165 c-7 184
-26 367 -40 390 -6 10 -7 -6 -3 -43 9 -95 25 -500 20 -505 -9 -9 -195 -10
-200 -2 -6 9 56 60 72 60 6 0 22 -12 37 -26 28 -28 33 -26 15 7 -25 47 -90 40
-135 -14 l-27 -32 -591 -2 c-325 -2 -601 -1 -612 2 -21 5 -22 13 -29 132 -4
71 -13 151 -20 178 -18 68 -27 192 -16 235 4 21 3 109 -5 210 -7 96 -12 193
-12 215 1 22 -4 79 -10 127 -7 48 -14 154 -16 236 -2 83 -9 159 -15 170 -6 11
-13 87 -16 169 -4 81 -10 184 -15 228 -19 167 -21 201 -10 183 5 -9 16 -45 24
-80 16 -69 55 -214 87 -320 11 -37 27 -72 35 -79 8 -6 14 -17 14 -23 0 -16 60
-140 65 -135 2 3 -14 54 -36 114 -36 96 -76 224 -124 390 -8 28 -26 91 -41
142 l-27 92 23 103 c30 141 44 214 80 421 31 176 49 247 71 274 7 7 54 26 106
43 53 16 102 35 110 41 28 24 35 -9 45 -218 6 -114 12 -210 14 -212 2 -2 7 -1
11 2 7 8 -42 791 -68 1061 -5 54 -9 117 -8 140 0 37 1 39 11 19 23 -49 25 -19
3 75 -25 107 -60 286 -80 402 -17 100 -22 108 -59 116 -25 4 -64 37 -158 132
-122 123 -126 129 -138 187 -16 78 -6 375 15 460 33 131 105 235 160 235 28 0
68 -39 91 -89 18 -38 53 -272 54 -359 0 -37 4 -54 15 -58 25 -10 20 -162 -9
-251 -4 -13 -3 -23 2 -23 15 0 42 71 51 135 l8 60 14 -30 c15 -34 19 -209 5
-239 -7 -14 -6 -18 5 -14 21 7 38 65 38 133 1 63 -8 87 -73 191 l-29 46 19 37
c10 20 47 74 82 120 60 80 75 115 32 76 -15 -14 -20 -15 -20 -4 0 8 36 55 80
106 73 84 92 113 73 113 -4 0 -27 -19 -50 -42 -26 -26 -43 -36 -43 -27 0 20
92 133 111 137 9 2 28 -13 43 -32 26 -35 27 -37 15 -98 -7 -35 -12 -133 -12
-218 0 -276 34 -454 134 -703 65 -163 153 -327 175 -327 21 0 17 15 -20 94
-46 93 -91 272 -75 292 6 8 18 14 25 14 8 0 14 7 14 16 0 12 -7 14 -29 9 -27
-6 -28 -5 -28 35 0 27 4 40 13 40 23 0 16 27 -12 47 -20 15 -27 30 -31 70 -2
28 -1 53 4 56 4 3 49 0 99 -6 l92 -10 4 -66 c7 -120 51 -171 147 -171 61 0
119 27 149 67 l21 28 36 -35 c20 -19 44 -47 53 -62 20 -34 42 -36 42 -4 0 23
-30 70 -59 92 -8 6 -11 16 -6 24 7 12 1 18 -75 84 -14 11 -31 41 -39 66 -7 25
-17 55 -22 68 -12 30 -12 159 0 167 6 3 41 -9 79 -26 68 -30 71 -32 91 -87 11
-32 34 -78 50 -104 26 -41 35 -48 63 -48 26 0 38 -7 57 -35 28 -42 51 -34 33
12 -16 42 -25 93 -16 93 5 0 25 -17 46 -37 21 -20 40 -35 43 -32 2 3 2 22 -2
42 -4 25 -22 56 -55 93 l-50 57 3 126 c3 149 5 158 31 167 24 7 38 -10 38 -49
0 -74 56 -227 107 -295 l24 -33 -17 -47 c-10 -26 -26 -61 -37 -79 -40 -69 32
-45 79 27 l27 40 64 -66 c40 -41 68 -63 74 -57 6 6 -1 21 -17 39 -14 16 -41
61 -59 100 l-34 72 14 68 c8 38 17 102 21 142 7 76 18 90 35 45 31 -86 155
-286 230 -374 l48 -56 -29 -39 c-16 -21 -30 -44 -30 -51 0 -19 31 -20 89 -4
l54 15 26 -32 c14 -18 31 -32 38 -32 7 0 20 -16 29 -35 12 -25 23 -35 40 -35
l23 0 -24 65 c-29 77 -30 85 -9 85 9 0 27 -26 45 -67 17 -38 37 -80 45 -95 8
-14 14 -29 14 -32 0 -3 -36 -3 -79 0 -123 10 -284 -38 -305 -92 -8 -22 12 -26
40 -7 25 16 27 16 40 -2 8 -10 14 -24 14 -30 0 -15 49 -59 83 -73 38 -16 74
-15 131 4 40 14 54 26 79 65 16 27 36 49 44 49 7 0 35 -11 61 -24 71 -35 180
-71 189 -63 11 12 -8 36 -42 55 -16 9 -32 18 -35 20 -3 2 4 10 14 18 23 16 20
17 -57 14 -87 -3 -145 46 -82 70 26 10 51 55 83 150 19 57 47 76 69 48 17 -23
46 -186 41 -233 -6 -48 5 -67 20 -38 6 10 18 52 28 93 12 49 20 66 22 50 6
-51 13 -57 29 -27 27 51 24 22 -5 -62 -25 -69 -27 -82 -13 -79 9 2 29 30 46
63 28 57 30 58 33 30 6 -66 -272 -656 -413 -875 -109 -170 -363 -428 -542
-550 -11 -8 -56 -40 -100 -70 -84 -60 -203 -135 -268 -168 -22 -12 -51 -30
-65 -42 l-25 -20 35 12 c45 14 187 93 287 158 42 27 81 50 85 50 4 0 8 -8 8
-17 0 -22 -106 -448 -120 -483 -6 -14 -32 -37 -58 -51 -26 -15 -72 -40 -102
-57 -92 -51 -223 -131 -243 -150 -11 -9 -31 -39 -45 -67 l-26 -50 -9 35 c-5
19 -12 42 -16 50 -13 26 -100 47 -171 42 -65 -4 -68 -3 -185 58 -66 34 -127
67 -135 74 -8 7 -94 59 -190 116 -315 186 -284 161 -346 280 -31 58 -60 110
-65 115 -15 15 26 -87 68 -167 38 -74 57 -90 203 -173 30 -18 116 -69 190
-115 317 -196 363 -218 450 -216 36 1 71 5 77 9 7 4 30 -1 51 -12 l39 -20 7
-83 c3 -46 11 -121 17 -168 l11 -86 54 -12 c29 -7 74 -22 98 -33 l45 -19 -4
-53 c-27 -341 -29 -867 -5 -891 21 -21 22 11 11 186 -6 101 -9 221 -5 268 3
47 5 106 5 132 -1 26 4 58 10 70 7 13 16 40 19 61 6 32 5 36 -8 25 -13 -11
-14 1 -7 98 5 87 4 112 -7 121 -7 6 -47 21 -88 33 -41 12 -80 29 -86 37 -18
22 -27 154 -13 186 14 31 29 26 30 -11 1 -26 1 -26 11 6 6 17 14 32 17 32 4 0
38 -44 75 -97 38 -54 93 -130 123 -169 59 -79 187 -283 303 -485 87 -150 207
-328 233 -343 23 -14 36 3 78 103 93 222 160 552 174 866 6 126 4 153 -19 275
-15 74 -33 160 -42 190 -8 30 -18 63 -20 73 -8 25 12 21 60 -11 22 -16 61 -43
86 -60 25 -17 58 -34 73 -37 15 -4 27 -12 27 -19 0 -6 23 -72 51 -146 28 -74
57 -154 66 -177 8 -24 21 -43 29 -43 10 0 13 -7 8 -25 -4 -15 -2 -25 5 -25 19
0 12 57 -13 112 -13 29 -38 91 -56 138 -51 136 -63 164 -77 181 -7 9 -11 24
-7 33 6 16 -16 42 -69 85 -27 22 -19 -1 14 -39 38 -43 21 -51 -29 -13 -49 39
-100 68 -144 82 -39 13 -50 37 -78 161 -27 122 -45 165 -80 202 -45 48 -184
127 -198 113 -7 -7 21 -27 118 -85 l75 -45 32 -100 c100 -314 166 -634 163
-785 -1 -90 -44 -434 -60 -485 -5 -16 -17 -64 -26 -105 -30 -133 -116 -370
-136 -370 -16 0 -181 246 -289 430 -24 41 -54 90 -66 109 -13 18 -27 48 -32
66 -5 18 -53 93 -108 166 -55 74 -125 171 -157 216 -32 46 -69 92 -83 103 -51
40 -34 52 391 304 247 147 336 219 336 271 0 16 -4 14 -19 -12 -11 -17 -44
-49 -73 -71 -68 -50 -197 -126 -204 -120 -2 3 0 16 5 29 23 53 81 300 90 383
6 48 16 95 23 104 20 25 51 51 70 57 14 5 98 -30 223 -91 17 -9 64 -29 105
-45 80 -33 89 -36 161 -68 26 -11 69 -28 95 -37 27 -9 63 -22 79 -29 17 -7 63
-25 104 -40 66 -25 85 -39 183 -134 85 -82 106 -106 93 -111 -15 -5 -14 -9 8
-23 15 -9 30 -17 35 -17 13 0 136 -132 168 -179 14 -23 30 -41 35 -41 5 0 19
-24 33 -53 25 -56 49 -83 65 -73 5 4 29 -15 53 -40 24 -26 48 -52 53 -58 6 -6
19 -22 28 -36 l17 -24 0 31 c0 23 -12 44 -50 84 -27 29 -48 55 -46 57 3 2 46
-17 97 -42 90 -45 119 -54 119 -38 0 8 -46 31 -227 114 -48 22 -113 96 -113
129 0 12 5 37 12 56 10 28 8 48 -12 130 -29 121 -54 180 -173 408 -149 286
-278 480 -414 620 -53 55 -125 115 -160 134 -31 16 -29 31 12 96 44 69 171
321 180 358 10 40 29 28 37 -24 8 -57 40 -141 55 -146 8 -3 6 16 -7 57 -28 93
-32 133 -21 196 13 70 52 194 61 194 4 0 10 -71 13 -157 6 -167 30 -313 65
-393 12 -26 20 -69 21 -104 2 -120 30 -246 55 -246 9 0 11 36 8 143 -3 78 1
207 8 286 11 122 18 155 42 210 31 66 48 70 48 9 0 -28 43 -68 73 -68 20 0 63
52 76 92 10 32 52 278 66 383 37 284 59 367 189 695 92 231 177 496 197 615
15 88 6 242 -21 353 -24 101 -36 124 -103 204 -29 35 -68 88 -88 118 -32 48
-350 380 -364 380 -3 0 -23 15 -43 34 -137 127 -446 342 -574 400 -40 19 -95
38 -123 44 -81 18 -383 70 -470 82 -108 14 -587 21 -652 10z m1008 -313 c20
-13 39 -37 45 -57 10 -31 12 -32 18 -12 9 29 56 31 56 3 0 -22 -59 -153 -73
-163 -13 -8 -34 0 -41 17 -2 7 6 33 20 58 29 56 30 66 4 42 -14 -13 -29 -16
-55 -12 -30 5 -38 2 -51 -19 -9 -13 -22 -24 -29 -24 -24 0 -24 29 1 77 13 26
24 53 24 58 0 14 29 55 39 55 4 0 23 -10 42 -23z m207 -167 c59 -36 35 -91
-34 -74 -19 5 -25 4 -20 -5 11 -17 67 -13 88 6 38 34 128 8 128 -37 0 -13 6
-16 24 -13 14 3 41 0 60 -7 30 -10 36 -16 36 -40 0 -16 -7 -30 -16 -34 -8 -3
-13 -10 -9 -16 3 -5 14 -1 25 10 25 25 47 25 87 1 61 -38 51 -96 -15 -89 -30
4 -32 3 -16 -9 10 -7 26 -13 36 -13 22 0 25 -38 4 -46 -25 -10 -85 24 -106 59
-15 25 -26 34 -40 30 -18 -5 -80 24 -80 37 0 4 -27 19 -60 34 -33 16 -65 36
-70 46 -5 10 -27 20 -51 24 -48 8 -99 53 -99 88 0 33 35 68 68 68 15 0 42 -9
60 -20z m-204 -181 c26 -17 49 -41 52 -54 5 -19 10 -22 32 -16 32 9 78 -2 104
-26 20 -18 56 -25 64 -11 12 19 44 7 50 -19 4 -16 14 -33 21 -38 21 -15 5 -48
-19 -41 -16 4 -23 -4 -36 -35 -12 -31 -20 -39 -36 -37 -22 3 -25 24 -11 81 5
17 3 33 -6 43 -12 14 -14 14 -26 -2 -7 -10 -13 -27 -13 -38 0 -47 -14 -51 -74
-23 -31 15 -61 37 -67 49 -9 20 -18 23 -64 24 -44 0 -56 -3 -60 -17 -10 -31
-55 -35 -55 -5 0 8 11 39 25 69 13 31 31 72 39 92 8 19 19 35 25 35 5 0 30
-14 55 -31z m-452 -68 c56 -24 74 -44 54 -60 -8 -7 -24 -10 -34 -7 -16 5 -23
-3 -40 -41 -18 -42 -19 -50 -7 -59 17 -13 20 -40 5 -49 -9 -6 -66 8 -100 25
-28 13 -24 40 7 46 22 4 33 16 47 51 14 33 16 47 7 56 -15 15 -14 44 2 50 6 3
13 6 14 6 1 1 21 -7 45 -18z m1225 -12 c8 -8 9 -19 2 -37 -9 -22 -5 -29 25
-54 19 -15 37 -42 41 -58 6 -25 9 -28 25 -20 31 16 57 12 90 -16 25 -21 30
-33 28 -58 -3 -29 -5 -31 -46 -31 -48 0 -56 -12 -14 -21 46 -10 52 -13 52 -27
0 -28 -27 -40 -62 -28 -45 16 -77 49 -84 87 -5 29 -9 32 -25 23 -24 -13 -54
-4 -96 28 -37 27 -41 49 -19 109 41 112 56 130 83 103z m-1048 -38 c12 -8 12
-14 1 -40 -7 -18 -11 -33 -9 -34 2 -2 17 -8 33 -15 23 -10 27 -17 22 -37 -7
-29 -8 -29 32 -10 35 18 70 12 101 -16 12 -11 26 -17 32 -14 18 12 39 -16 39
-51 0 -39 9 -43 35 -14 24 27 60 23 60 -6 0 -23 -102 -114 -128 -114 -18 0
-27 30 -27 100 -1 53 -1 54 -15 30 -8 -14 -14 -37 -15 -52 0 -35 -15 -43 -48
-28 -68 31 -77 37 -88 58 -9 19 -13 20 -17 8 -8 -21 -36 -21 -44 0 -3 8 2 34
11 56 9 23 14 44 11 46 -7 8 -34 -19 -48 -47 -7 -14 -22 -27 -35 -29 -18 -3
-22 1 -22 22 0 14 4 27 9 30 5 3 21 36 37 73 39 95 45 102 73 84z m678 -47 c4
-10 0 -22 -9 -28 -8 -6 -13 -17 -11 -23 3 -7 -3 -35 -12 -63 -17 -51 -46 -68
-59 -34 -8 20 13 91 31 105 7 6 13 22 13 35 0 28 37 34 47 8z m82 -110 c22
-18 31 -35 31 -55 0 -27 -3 -29 -37 -29 l-38 -1 35 -17 35 -18 17 38 c19 43
32 47 48 18 6 -11 17 -20 25 -20 7 0 23 -12 35 -27 23 -29 59 -40 71 -22 11
19 38 2 45 -28 4 -15 13 -36 22 -45 19 -23 8 -52 -18 -45 -16 4 -22 -2 -30
-34 -13 -46 -27 -57 -47 -36 -13 13 -14 23 -3 67 11 47 11 52 -6 65 -18 13
-20 10 -29 -30 -12 -53 -20 -62 -40 -45 -17 14 -20 57 -6 93 6 14 7 28 4 31
-10 10 -43 -26 -43 -46 0 -29 -44 -20 -48 10 -3 16 -10 22 -29 22 -36 0 -103
69 -103 107 0 39 26 73 55 73 13 0 37 -12 54 -26z m-312 -114 c32 -19 51 -59
38 -79 -3 -6 -30 -11 -58 -11 -48 -1 -50 -2 -33 -15 11 -8 27 -13 35 -10 23 7
44 -9 39 -31 -4 -24 -49 -30 -89 -13 -72 29 -92 108 -38 153 37 31 63 33 106
6z m226 -131 c14 -6 31 -22 38 -35 7 -14 21 -24 35 -24 29 0 37 -24 23 -70
-12 -40 -7 -70 10 -70 6 0 14 12 17 28 4 15 12 35 19 45 11 16 14 15 39 -8 29
-27 41 -31 51 -15 11 17 45 -9 45 -34 0 -13 7 -29 15 -36 8 -7 15 -21 15 -32
0 -16 -5 -19 -24 -14 -21 5 -25 2 -30 -28 -8 -44 -29 -62 -46 -41 -9 11 -10
27 -3 65 9 42 8 52 -7 65 -16 15 -18 13 -29 -29 -6 -25 -15 -47 -21 -51 -10
-6 -90 48 -103 71 -4 8 -15 14 -23 14 -9 0 -27 9 -41 20 -14 11 -32 20 -39 20
-24 0 -54 51 -54 91 0 66 51 96 113 68z m377 -228 c8 -16 6 -22 -6 -29 -9 -5
-14 -15 -12 -23 3 -8 -1 -31 -8 -53 -17 -48 -17 -46 1 -46 10 0 15 10 15 30 0
18 6 33 15 36 23 9 87 -17 92 -37 3 -11 12 -19 19 -19 8 0 17 -7 20 -15 4 -8
13 -15 20 -15 8 0 17 -7 20 -15 4 -8 12 -15 19 -15 30 0 39 -29 25 -83 -16
-64 -28 -81 -45 -67 -10 8 -11 20 -4 43 15 51 9 66 -8 20 -23 -67 -62 -50 -43
18 12 41 5 50 -11 15 -14 -30 -39 -34 -46 -7 -3 12 -14 19 -29 19 -28 0 -60
25 -69 53 -4 11 -15 19 -26 19 -11 0 -22 7 -25 15 -9 22 16 116 32 122 9 3 12
13 8 29 -5 20 -2 24 15 24 11 0 25 -9 31 -19z m-3274 -256 c-10 -53 -31 -58
-22 -5 4 24 10 48 13 54 11 17 16 -12 9 -49z m-76 -498 c-6 -151 -9 -292 -6
-313 3 -22 8 -72 12 -112 6 -67 15 -111 43 -199 5 -18 6 -33 1 -33 -21 0 -66
175 -81 315 -16 153 -3 460 27 604 14 66 15 -14 4 -262z m715 199 c-36 -29
-45 -17 -14 18 16 18 26 23 33 16 7 -7 1 -18 -19 -34z m151 -152 c-3 -26 -6
-128 -6 -227 0 -126 -3 -178 -10 -171 -12 12 -16 372 -5 417 12 46 28 32 21
-19z m1286 -179 c50 -113 53 -125 40 -125 -9 0 -112 211 -112 230 0 35 30 -9
72 -105z m-268 97 c3 -5 14 -54 26 -110 11 -57 30 -125 41 -154 41 -105 -4
-68 -50 42 -25 59 -53 194 -44 216 6 16 19 18 27 6z m116 6 c9 -53 10 -121 2
-113 -16 15 -27 115 -13 115 6 0 11 -1 11 -2z m-957 -25 c3 -5 7 -37 11 -73 3
-36 12 -91 21 -123 8 -32 15 -59 15 -61 0 -2 20 -30 45 -62 60 -77 50 -91 -36
-46 -4 1 -9 -6 -12 -18 -4 -16 -9 -19 -29 -12 -12 5 -28 7 -35 5 -30 -11 -33
68 -11 285 10 101 18 127 31 105z m697 -129 c0 -96 -3 -125 -12 -121 -18 6
-10 247 7 247 3 0 5 -57 5 -126z m430 96 c4 -3 27 -43 51 -90 25 -47 71 -129
102 -182 62 -107 70 -124 33 -81 -63 76 -207 339 -205 375 0 9 3 8 6 -2 3 -8
9 -17 13 -20z m-569 -51 c28 -87 24 -116 -13 -86 -16 12 -41 124 -31 140 11
18 27 -2 44 -54z m-75 -6 c5 -36 4 -43 -10 -43 -19 0 -92 35 -100 49 -8 13 19
32 57 41 40 9 44 5 53 -47z m-436 21 c0 -14 -4 -23 -10 -19 -5 3 -10 15 -10
26 0 10 5 19 10 19 6 0 10 -12 10 -26z m1719 -102 c34 -97 51 -182 51 -255 0
-41 -3 -48 -17 -45 -15 3 -21 30 -40 162 -12 88 -29 177 -38 198 -19 47 -19
54 -1 39 8 -6 28 -51 45 -99z m-1678 -28 c19 -54 24 -88 10 -80 -12 8 -38 65
-46 105 -11 52 15 34 36 -25z m194 16 c11 -19 43 -155 38 -167 -3 -8 -15 -10
-34 -6 -18 3 -29 1 -29 -6 0 -6 9 -11 21 -11 31 0 57 -18 75 -51 8 -17 14 -32
12 -34 -6 -6 -78 21 -90 33 -7 7 -24 12 -39 12 -29 0 -55 23 -44 40 8 13 14
41 27 128 10 65 13 72 34 72 13 0 25 -4 29 -10z m1725 -120 c5 -41 9 -84 9
-95 -1 -19 -31 92 -44 165 -6 32 -5 34 9 20 9 -9 20 -47 26 -90z m-1398 -9
c28 -22 65 -97 54 -109 -11 -9 -72 62 -85 99 -12 34 -3 37 31 10z m838 -34 c0
-5 14 -32 30 -59 27 -44 33 -77 10 -63 -9 6 -53 97 -65 137 -7 20 -6 21 9 9 9
-7 16 -18 16 -24z m-1510 -13 c0 -13 -4 -24 -10 -24 -5 0 -10 14 -10 31 0 17
4 28 10 24 6 -3 10 -17 10 -31z m1940 -92 c0 -44 -25 -17 -28 29 -2 43 -2 43
13 19 8 -14 14 -35 15 -48z m-1659 -44 c33 -9 39 -16 39 -38 0 -14 6 -35 14
-46 14 -18 16 -18 33 -1 15 15 16 20 5 38 -19 29 -10 33 34 14 85 -35 95 -70
32 -115 -33 -24 -51 -30 -94 -30 -44 0 -59 5 -84 28 -34 29 -52 88 -43 134 6
32 10 33 64 16z m1591 -98 c-3 -39 -23 -81 -30 -62 -2 7 -1 33 3 58 7 52 32
56 27 4z m-93 18 c0 -7 -4 -22 -9 -33 -7 -17 -9 -15 -9 13 -1 17 4 32 9 32 6
0 10 -6 9 -12z m310 -50 c0 -33 -2 -38 -9 -23 -12 28 -12 65 0 65 6 0 10 -19
9 -42z m-302 -122 c-7 -14 -20 -27 -29 -30 -24 -6 -23 4 5 31 29 29 38 29 24
-1z m458 -77 c-8 -103 -23 -147 -24 -72 -1 49 18 153 27 153 3 0 1 -37 -3 -81z
m-547 -11 c18 -16 15 -46 -7 -53 -11 -3 -22 -13 -25 -21 -3 -8 -21 -21 -41
-29 -74 -31 -138 -10 -165 55 -17 41 0 62 49 58 29 -2 37 -8 39 -25 4 -29 52
-33 52 -5 0 29 21 43 55 36 16 -3 36 -11 43 -16z m-2501 -80 c-79 -97 -142
-260 -156 -405 -20 -190 -24 -214 -35 -210 -21 7 -44 139 -45 253 -1 128 13
183 67 258 50 72 144 145 185 146 15 0 12 -8 -16 -42z m70 8 c-3 -8 -16 -20
-28 -26 -17 -10 -20 -9 -14 2 24 41 55 59 42 24z m2693 4 c12 -8 11 -10 -7
-10 -13 0 -23 5 -23 10 0 13 11 13 30 0z m306 -197 c-4 -71 -10 -137 -13 -147
-9 -32 -22 3 -33 91 -9 71 -8 82 12 130 13 29 27 53 32 53 5 0 5 -57 2 -127z
m-3048 -203 c-5 -91 -6 -232 -3 -315 6 -162 -5 -178 -24 -35 -19 141 -24 338
-12 424 11 76 27 116 41 99 3 -4 2 -82 -2 -173z m-115 -280 c7 -79 -8 -59 -18
25 -4 38 -3 56 3 50 5 -5 12 -39 15 -75z m-23 -105 c0 -17 -2 -17 -10 -5 -5 8
-10 24 -10 35 0 17 2 17 10 5 5 -8 10 -24 10 -35z m2784 -52 c9 -21 -11 -15
-38 11 -36 33 -33 53 3 24 16 -13 32 -29 35 -35z m-2712 -185 c57 -115 67
-143 72 -204 3 -39 3 -74 -1 -77 -12 -13 -55 74 -98 201 -45 134 -63 212 -48
212 5 0 39 -60 75 -132z m2662 -52 c11 -17 17 -56 19 -132 6 -155 -4 -167 -25
-29 -10 66 -21 135 -24 153 -7 38 7 42 30 8z m-2206 -128 c4 -19 -29 -36 -133
-69 -73 -23 -84 -24 -63 -3 23 23 161 94 178 91 8 -1 16 -10 18 -19z m2578
-97 c15 -63 18 -171 5 -171 -4 0 -12 28 -15 63 -4 34 -14 89 -22 122 -7 33
-14 69 -13 80 0 32 29 -29 45 -94z m-228 -29 c35 -80 77 -211 69 -219 -9 -8
-167 50 -167 62 0 6 9 28 19 48 10 21 22 69 26 107 4 39 10 70 15 70 4 0 21
-31 38 -68z m412 -177 c49 -99 103 -216 119 -260 34 -88 68 -231 58 -242 -4
-3 -46 36 -94 88 -48 52 -125 132 -170 178 l-83 85 30 59 c35 70 39 150 15
252 -8 33 -15 66 -15 74 0 31 54 -61 140 -234z m-767 146 c36 -32 6 -44 -33
-13 -18 14 -21 24 -15 43 7 23 8 23 19 5 6 -11 19 -26 29 -35z m552 -208 c-4
-20 -11 -33 -18 -30 -15 5 -11 61 5 90 l13 22 3 -24 c2 -13 1 -39 -3 -58z
m-4255 -1618 c0 -7 6 -16 13 -18 7 -4 -6 -22 -35 -49 -105 -97 -146 -113 -99
-38 6 8 18 37 27 63 18 50 42 68 76 59 10 -2 18 -10 18 -17z m5025 -1114 c-4
-13 -15 -21 -27 -21 -21 0 -21 0 2 25 26 28 35 27 25 -4z"/>
<path d="M3806 7094 c-9 -23 -8 -24 14 -24 11 0 20 6 20 14 0 20 -27 28 -34
10z"/>
<path d="M4120 6860 c-9 -16 -8 -21 5 -26 19 -8 22 -5 27 20 4 27 -18 31 -32
6z"/>
<path d="M4197 6820 c-3 -11 -1 -23 4 -26 5 -3 9 6 9 20 0 31 -6 34 -13 6z"/>
<path d="M3796 6733 c-4 -9 -1 -20 6 -24 15 -9 38 8 38 27 0 20 -37 17 -44 -3z"/>
<path d="M3936 6664 c-3 -9 -4 -20 0 -25 7 -12 34 -12 34 0 0 5 3 16 6 25 4
11 0 16 -14 16 -11 0 -23 -7 -26 -16z"/>
<path d="M4584 6586 c-10 -26 1 -51 21 -51 23 0 32 30 15 50 -16 19 -29 19
-36 1z"/>
<path d="M3652 6483 c-5 -10 -7 -24 -5 -30 8 -23 31 -14 42 17 9 27 8 30 -9
30 -11 0 -23 -8 -28 -17z"/>
<path d="M4186 6215 c-7 -20 3 -45 19 -45 13 0 25 21 25 46 0 19 -36 18 -44
-1z"/>
<path d="M4690 5869 c0 -5 5 -7 10 -4 6 3 10 8 10 11 0 2 -4 4 -10 4 -5 0 -10
-5 -10 -11z"/>
<path d="M1572 5301 c12 -28 23 -49 25 -48 7 7 -23 91 -34 94 -7 3 -3 -16 9
-46z"/>
<path d="M1527 5293 c-4 -3 -7 -11 -7 -17 0 -6 5 -5 12 2 6 6 9 14 7 17 -3 3
-9 2 -12 -2z"/>
<path d="M1524 5105 c-24 -37 -12 -40 15 -5 12 17 17 30 12 30 -6 0 -18 -11
-27 -25z"/>
<path d="M1600 5080 c5 -19 15 -55 24 -80 11 -33 15 -39 15 -20 1 34 -16 92
-33 115 -14 18 -14 17 -6 -15z"/>
<path d="M1499 5040 c-8 -21 4 -63 19 -68 15 -5 15 15 -2 53 -8 20 -14 25 -17
15z"/>
<path d="M1590 4878 c0 -16 9 -34 23 -45 12 -10 30 -34 39 -53 10 -22 17 -28
17 -17 1 24 -27 77 -40 77 -5 0 -16 15 -24 33 -14 32 -14 32 -15 5z"/>
<path d="M1516 4831 c-9 -13 84 -111 105 -111 7 0 -9 19 -36 42 -26 23 -50 50
-54 61 -6 15 -10 17 -15 8z"/>
<path d="M1656 4719 c-18 -17 -18 -19 -2 -19 9 0 19 7 23 15 8 23 0 25 -21 4z"/>
<path d="M2372 4512 c-18 -15 -32 -33 -32 -39 0 -19 12 -16 41 11 14 13 36 27
50 31 23 8 23 8 4 16 -28 11 -27 11 -63 -19z"/>
<path d="M2456 4486 c-21 -32 -2 -46 26 -19 16 17 17 21 5 31 -12 10 -18 7
-31 -12z"/>
<path d="M2705 4460 c3 -5 10 -10 16 -10 5 0 9 5 9 10 0 6 -7 10 -16 10 -8 0
-12 -4 -9 -10z"/>
<path d="M4090 4220 c-13 -36 -8 -48 30 -63 47 -18 52 -10 10 18 -16 11 -31
27 -34 35 -2 8 -5 13 -6 10z"/>
<path d="M3790 4170 c0 -5 7 -10 16 -10 8 0 12 5 9 10 -3 6 -10 10 -16 10 -5
0 -9 -4 -9 -10z"/>
<path d="M3850 4147 c0 -19 16 -31 24 -18 3 5 -1 14 -9 21 -12 10 -15 10 -15
-3z"/>
<path d="M3924 4129 c-8 -14 30 -49 52 -49 21 0 16 13 -16 38 -20 16 -31 19
-36 11z"/>
<path d="M4062 4129 c2 -7 10 -15 17 -17 8 -3 12 1 9 9 -2 7 -10 15 -17 17 -8
3 -12 -1 -9 -9z"/>
<path d="M4000 4106 c0 -15 37 -32 47 -22 9 8 -17 36 -33 36 -8 0 -14 -6 -14
-14z"/>
<path d="M1910 3686 c0 -18 80 -177 120 -237 147 -217 263 -353 432 -506 166
-149 231 -194 311 -219 52 -15 65 -16 130 -3 l72 14 -100 6 c-110 7 -148 21
-240 89 -66 50 -260 230 -328 305 -115 129 -284 360 -336 462 -31 61 -60 104
-61 89z"/>
<path d="M2936 3681 c5 -5 27 -11 49 -15 37 -6 39 -5 21 9 -21 16 -87 22 -70
6z"/>
<path d="M3133 3653 c-7 -2 -13 -11 -13 -18 0 -11 6 -10 31 2 18 9 42 13 60 9
16 -3 29 -1 29 4 0 10 -85 13 -107 3z"/>
<path d="M2580 3461 c0 -10 24 -21 43 -21 7 0 3 7 -7 15 -22 17 -36 19 -36 6z"/>
<path d="M2642 3408 c5 -15 45 -29 141 -51 90 -20 86 -3 -5 23 -40 12 -83 26
-96 31 -31 12 -44 11 -40 -3z"/>
<path d="M2890 3341 c0 -8 84 -22 130 -20 16 1 8 6 -25 15 -57 16 -105 18
-105 5z"/>
<path d="M3165 3311 c-88 -7 -62 -21 39 -21 90 0 166 10 166 21 0 10 -89 9
-205 0z"/>
<path d="M2796 3190 c6 -6 28 -13 50 -16 l39 -4 -45 15 c-54 18 -57 18 -44 5z"/>
<path d="M2908 3163 c7 -3 16 -2 19 1 4 3 -2 6 -13 5 -11 0 -14 -3 -6 -6z"/>
<path d="M1705 2950 c3 -5 8 -10 11 -10 2 0 4 5 4 10 0 6 -5 10 -11 10 -5 0
-7 -4 -4 -10z"/>
<path d="M1676 2906 c3 -9 11 -16 16 -16 13 0 5 23 -10 28 -7 2 -10 -2 -6 -12z"/>
<path d="M3820 2734 c0 -8 43 -43 53 -44 18 0 5 28 -18 38 -29 14 -35 14 -35
6z"/>
<path d="M4023 2670 c14 -11 31 -20 39 -20 18 1 -30 40 -49 40 -11 0 -7 -7 10
-20z"/>
<path d="M3859 2656 c7 -9 20 -16 27 -16 8 0 22 -9 31 -20 18 -21 43 -27 43
-10 0 6 -12 16 -27 23 -16 6 -30 14 -33 18 -3 3 -16 10 -30 14 -22 7 -23 6
-11 -9z"/>
<path d="M3944 2547 c35 -35 57 -46 55 -29 0 9 -52 50 -74 58 -10 4 -1 -9 19
-29z"/>
<path d="M4460 2536 c0 -9 63 -36 69 -30 9 8 -30 34 -51 34 -10 0 -18 -2 -18
-4z"/>
<path d="M1423 2503 c-16 -26 -17 -73 -3 -73 15 0 22 23 18 62 -3 32 -3 32
-15 11z"/>
<path d="M4155 2480 c3 -5 11 -10 16 -10 6 0 7 5 4 10 -3 6 -11 10 -16 10 -6
0 -7 -4 -4 -10z"/>
<path d="M4535 2440 c3 -5 13 -10 21 -10 8 0 12 5 9 10 -3 6 -13 10 -21 10 -8
0 -12 -4 -9 -10z"/>
<path d="M701 2366 c-31 -9 -48 -20 -55 -37 -5 -13 -22 -51 -38 -83 -16 -33
-27 -63 -26 -68 2 -6 21 25 42 67 42 85 69 108 118 103 25 -2 34 1 36 15 4 20
-11 20 -77 3z"/>
<path d="M710 2310 c-14 -10 -22 -21 -19 -25 3 -3 17 3 30 14 31 25 21 35 -11
11z"/>
<path d="M4210 2291 c0 -15 41 -71 52 -71 18 0 6 28 -22 55 -16 16 -30 23 -30
16z"/>
<path d="M4745 2280 c3 -5 8 -10 11 -10 2 0 4 5 4 10 0 6 -5 10 -11 10 -5 0
-7 -4 -4 -10z"/>
<path d="M552 2238 c-6 -6 -12 -19 -12 -27 0 -13 2 -13 16 1 9 9 15 21 13 27
-3 9 -8 8 -17 -1z"/>
<path d="M517 2160 c-3 -11 -1 -20 4 -20 5 0 9 9 9 20 0 11 -2 20 -4 20 -2 0
-6 -9 -9 -20z"/>
<path d="M560 2134 c0 -8 5 -12 10 -9 6 4 8 11 5 16 -9 14 -15 11 -15 -7z"/>
<path d="M2548 2112 c-19 -21 -61 -83 -93 -138 -84 -143 -381 -585 -467 -695
-15 -20 -28 -43 -28 -51 0 -8 -9 -41 -20 -73 -24 -69 -25 -85 -6 -85 9 0 20
25 31 70 11 46 29 85 49 110 17 22 48 64 70 95 34 50 41 56 65 51 32 -8 102
-83 156 -167 22 -34 44 -67 50 -73 5 -6 30 -38 55 -71 60 -82 68 -88 100 -88
60 0 79 47 34 86 -24 20 -71 77 -129 155 -49 67 -75 96 -75 86 0 -17 107 -161
165 -222 27 -29 51 -57 53 -62 2 -5 -8 -16 -22 -25 -35 -23 -50 -12 -129 97
-38 51 -102 139 -143 196 -60 81 -80 102 -99 102 -14 0 -25 5 -25 11 0 8 149
234 182 276 13 16 48 -8 157 -110 46 -43 86 -76 89 -73 5 5 -125 136 -192 193
-24 20 -28 28 -19 41 6 10 52 85 101 168 102 170 135 214 163 214 10 0 19 5
19 10 0 6 -13 10 -29 10 -21 0 -38 -11 -63 -38z"/>
<path d="M4810 2145 c0 -18 19 -40 26 -32 4 4 0 15 -9 24 -9 10 -17 13 -17 8z"/>
<path d="M497 2114 c-4 -4 -7 -14 -7 -23 0 -11 3 -12 11 -4 6 6 10 16 7 23 -2
6 -7 8 -11 4z"/>
<path d="M547 2093 c-4 -3 -7 -11 -7 -17 0 -6 5 -5 12 2 6 6 9 14 7 17 -3 3
-9 2 -12 -2z"/>
<path d="M4307 2065 c9 -19 23 -35 30 -35 18 0 16 7 -8 41 -28 40 -42 36 -22
-6z"/>
<path d="M4850 2073 c0 -19 11 -43 21 -43 13 0 11 14 -6 36 -8 10 -15 14 -15
7z"/>
<path d="M476 2054 c-4 -9 -4 -19 -1 -22 2 -3 7 3 11 12 4 9 4 19 1 22 -2 3
-7 -3 -11 -12z"/>
<path d="M4930 2059 c0 -9 9 -24 20 -34 26 -23 26 -4 0 26 -15 18 -19 20 -20
8z"/>
<path d="M530 2034 c0 -8 5 -12 10 -9 6 4 8 11 5 16 -9 14 -15 11 -15 -7z"/>
<path d="M2690 2046 c0 -5 14 -24 30 -43 17 -18 30 -38 30 -43 0 -6 7 -10 15
-10 8 0 15 3 15 8 0 10 -90 98 -90 88z"/>
<path d="M5190 2036 c0 -15 36 -32 55 -27 5 1 15 -6 23 -16 11 -15 14 -16 22
-3 8 12 0 20 -38 37 -57 26 -62 27 -62 9z"/>
<path d="M4880 2003 c0 -5 7 -18 15 -29 12 -16 14 -16 15 -3 0 9 -7 22 -15 29
-8 7 -15 8 -15 3z"/>
<path d="M438 1961 c-20 -42 -22 -51 -10 -51 11 0 42 79 34 84 -4 2 -15 -13
-24 -33z"/>
<path d="M517 1994 c-4 -4 -7 -14 -7 -23 0 -11 3 -12 11 -4 6 6 10 16 7 23 -2
6 -7 8 -11 4z"/>
<path d="M5077 1987 c-12 -31 12 -68 116 -175 136 -140 180 -190 203 -229 10
-18 21 -33 25 -33 3 0 30 -36 59 -80 29 -45 68 -95 86 -113 19 -17 34 -36 34
-42 0 -5 18 -30 40 -55 30 -34 39 -40 40 -26 0 10 -20 43 -45 72 -25 28 -45
56 -45 61 0 4 -16 30 -35 57 -19 27 -33 51 -30 54 2 2 18 -1 36 -7 17 -6 35
-8 40 -5 16 9 10 40 -11 59 -11 10 -20 24 -20 30 0 7 -14 30 -31 51 -25 31
-30 34 -24 15 4 -14 20 -42 36 -64 39 -54 38 -67 -8 -63 -24 2 -43 12 -55 27
-11 13 -25 32 -33 41 -7 9 -20 28 -27 41 -7 14 -67 82 -133 152 -66 70 -124
133 -128 141 -4 8 -21 21 -37 29 -19 10 -33 27 -38 47 -6 25 -10 29 -15 15z"/>
<path d="M5310 1985 c0 -15 38 -35 63 -35 13 1 -43 50 -55 50 -5 0 -8 -7 -8
-15z"/>
<path d="M4990 1960 c0 -5 21 -42 46 -81 25 -40 48 -79 52 -88 3 -9 16 -30 29
-47 13 -17 23 -35 23 -41 0 -6 14 -27 30 -48 17 -21 30 -42 30 -48 0 -6 9 -20
19 -31 10 -12 27 -37 38 -56 10 -19 30 -53 44 -75 14 -22 29 -47 32 -55 4 -8
25 -44 47 -80 23 -39 35 -69 30 -74 -6 -6 -15 -4 -24 4 -9 7 -24 9 -33 5 -15
-5 -16 -8 -3 -14 8 -5 34 -11 56 -15 50 -7 61 8 33 45 -10 13 -19 29 -19 35 0
5 -12 26 -26 45 -14 19 -30 43 -35 54 -5 11 -23 40 -39 65 -16 25 -43 69 -60
97 -17 29 -35 55 -40 58 -5 3 -28 40 -52 82 -67 118 -90 157 -125 207 -18 26
-33 51 -33 57 0 5 -4 9 -10 9 -5 0 -10 -4 -10 -10z"/>
<path d="M5390 1944 c0 -8 5 -12 10 -9 6 3 10 10 10 16 0 5 -4 9 -10 9 -5 0
-10 -7 -10 -16z"/>
<path d="M2535 1940 c-3 -5 1 -10 9 -10 9 0 16 5 16 10 0 6 -4 10 -9 10 -6 0
-13 -4 -16 -10z"/>
<path d="M497 1933 c-11 -20 -19 -75 -9 -69 12 7 27 65 19 72 -3 3 -7 2 -10
-3z"/>
<path d="M4920 1923 c0 -5 4 -15 10 -23 11 -18 25 -7 17 15 -6 15 -27 21 -27
8z"/>
<path d="M5430 1925 c0 -3 39 -24 88 -46 48 -22 100 -47 116 -55 36 -18 46
-18 46 -1 0 19 -183 107 -221 107 -16 0 -29 -2 -29 -5z"/>
<path d="M401 1875 c-15 -39 -30 -74 -47 -107 -19 -36 -19 -54 1 -38 8 7 15
19 15 26 0 8 4 22 10 32 24 45 41 92 37 104 -3 7 -10 0 -16 -17z"/>
<path d="M2466 1847 c-28 -37 -32 -47 -16 -47 6 0 10 7 10 15 0 8 3 15 8 15 9
0 35 41 29 47 -3 2 -17 -11 -31 -30z"/>
<path d="M4960 1856 c0 -10 22 -41 49 -68 50 -50 75 -97 65 -122 -7 -18 15
-31 29 -17 8 8 7 17 -1 33 -6 13 -12 32 -14 43 -2 10 -18 30 -37 42 -19 13
-40 35 -48 50 -8 16 -21 35 -29 43 -12 12 -14 12 -14 -4z"/>
<path d="M460 1815 c0 -8 2 -15 4 -15 2 0 6 7 10 15 3 8 1 15 -4 15 -6 0 -10
-7 -10 -15z"/>
<path d="M73 1780 c-15 -22 -33 -40 -40 -40 -13 0 -38 -39 -30 -46 6 -6 67 48
67 59 0 4 11 19 25 33 27 27 30 34 16 34 -5 0 -22 -18 -38 -40z"/>
<path d="M4082 1773 c-5 -21 -14 -59 -20 -86 -21 -86 -11 -84 13 3 12 47 26
93 30 103 4 10 3 17 -4 17 -5 0 -14 -17 -19 -37z"/>
<path d="M424 1723 c-12 -32 -26 -77 -31 -100 -14 -60 8 -65 61 -14 42 40 139
95 158 89 6 -2 -15 -26 -47 -52 -55 -48 -62 -71 -17 -60 12 4 20 10 17 14 -3
5 16 28 41 53 89 84 28 95 -103 19 -35 -20 -63 -39 -63 -43 0 -4 -7 -10 -15
-13 -13 -5 -15 0 -9 32 4 20 15 56 26 80 20 49 21 52 10 52 -4 0 -17 -26 -28
-57z"/>
<path d="M2474 1762 c3 -21 124 -118 134 -107 7 7 -85 97 -118 115 -15 8 -18
6 -16 -8z"/>
<path d="M843 1755 c-18 -8 -33 -15 -33 -17 0 -3 158 -1 170 1 3 1 -4 8 -14
16 -25 19 -81 19 -123 0z"/>
<path d="M4837 1704 c-15 -15 -5 -19 47 -20 30 -1 71 -5 90 -8 21 -4 36 -3 36
2 0 6 -21 13 -47 16 -27 4 -64 9 -83 12 -20 3 -39 2 -43 -2z"/>
<path d="M302 1650 c-26 -63 -10 -76 17 -14 23 51 25 64 12 64 -4 0 -18 -22
-29 -50z"/>
<path d="M3909 1620 c-3 -47 -4 -87 -2 -89 10 -13 14 16 11 90 l-3 84 -6 -85z"/>
<path d="M2823 1671 c-34 -21 -48 -53 -40 -92 3 -19 5 -18 6 8 1 22 10 39 32
57 37 31 54 33 76 6 20 -23 33 -26 33 -6 0 38 -64 53 -107 27z"/>
<path d="M3072 1670 c0 -14 2 -19 5 -12 2 6 2 18 0 25 -3 6 -5 1 -5 -13z"/>
<path d="M5025 1670 c3 -5 14 -10 23 -10 15 0 15 2 2 10 -20 13 -33 13 -25 0z"/>
<path d="M5495 1670 c-7 -11 -7 -11 20 -16 11 -1 31 -6 45 -9 l25 -7 -24 21
c-25 22 -56 27 -66 11z"/>
<path d="M825 1636 c-22 -7 -49 -17 -60 -23 -11 -6 -31 -16 -45 -22 -51 -24
-80 -42 -80 -51 0 -4 52 14 116 41 115 50 157 58 161 29 3 -15 -58 -60 -81
-60 -8 0 -19 -7 -27 -16 -20 -24 0 -30 129 -38 64 -4 126 -8 137 -9 11 -1 22
3 25 8 3 6 -43 16 -117 24 -68 8 -123 18 -123 23 0 4 6 8 13 8 6 0 25 11 40
24 16 14 34 27 40 29 8 3 5 11 -7 26 -22 24 -60 26 -121 7z"/>
<path d="M5010 1631 c0 -6 14 -11 30 -11 34 0 35 -2 18 -31 -14 -22 -16 -20
72 -84 30 -22 50 -48 71 -94 16 -35 29 -66 29 -68 0 -4 -94 5 -110 10 -3 1 -7
-2 -10 -7 -3 -5 6 -11 20 -13 14 -2 49 -8 79 -13 70 -13 71 -13 71 5 0 8 -4
15 -10 15 -5 0 -23 26 -39 58 -16 31 -57 84 -90 117 -34 33 -61 63 -61 67 0 4
14 8 32 10 45 4 46 24 1 31 -21 3 -53 9 -70 12 -22 5 -33 4 -33 -4z"/>
<path d="M5610 1605 c7 -9 15 -13 17 -11 7 7 -7 26 -19 26 -6 0 -6 -6 2 -15z"/>
<path d="M3150 1586 c-15 -39 -12 -46 6 -13 9 16 13 31 10 34 -3 3 -10 -6 -16
-21z"/>
<path d="M4531 1588 c5 -21 147 -148 165 -148 20 0 17 16 -12 60 -15 22 -24
43 -21 46 7 8 74 -48 112 -93 35 -43 53 -43 23 -1 -43 62 -99 109 -132 115
-38 6 -54 -10 -35 -33 6 -8 10 -17 7 -20 -3 -2 -29 17 -58 43 -29 26 -51 40
-49 31z"/>
<path d="M254 1542 c-9 -21 -29 -47 -45 -57 -37 -25 -45 -46 -23 -62 23 -17
117 -18 112 -1 -2 6 -22 12 -43 12 -41 1 -61 24 -29 33 11 2 29 26 42 52 25
54 26 61 11 61 -6 0 -17 -17 -25 -38z"/>
<path d="M4031 1564 c0 -11 3 -14 6 -6 3 7 2 16 -1 19 -3 4 -6 -2 -5 -13z"/>
<path d="M5638 1546 c-7 -36 8 -92 27 -100 16 -6 21 15 8 28 -5 4 -13 29 -18
54 -10 44 -11 45 -17 18z"/>
<path d="M400 1546 c0 -10 8 -16 22 -16 12 0 19 1 17 3 -2 1 -12 9 -21 16 -15
12 -18 11 -18 -3z"/>
<path d="M350 1534 c0 -8 5 -12 10 -9 6 4 8 11 5 16 -9 14 -15 11 -15 -7z"/>
<path d="M2810 1520 c14 -11 29 -20 34 -20 5 0 -3 9 -17 20 -14 11 -29 20 -34
20 -4 0 3 -9 17 -20z"/>
<path d="M380 1493 c0 -21 42 -73 62 -77 86 -19 186 -45 202 -51 14 -6 17 -5
14 6 -3 8 -11 13 -18 11 -7 -1 -17 1 -24 6 -6 6 -35 15 -64 21 -64 13 -88 25
-126 63 -29 28 -46 35 -46 21z"/>
<path d="M2640 1463 c0 -4 8 -17 16 -28 15 -20 16 -20 12 4 -3 22 -28 44 -28
24z"/>
<path d="M760 1452 c0 -5 15 -12 33 -15 64 -11 184 -36 271 -57 93 -22 117
-21 69 3 -28 14 -195 53 -265 62 -21 2 -54 7 -73 11 -21 4 -35 2 -35 -4z"/>
<path d="M2289 1415 c17 -33 31 -51 31 -40 0 6 -10 21 -21 35 -13 17 -17 18
-10 5z"/>
<path d="M4069 1403 l-24 -28 28 24 c15 14 27 26 27 28 0 8 -8 1 -31 -24z"/>
<path d="M370 1379 c0 -5 -13 -15 -30 -20 -16 -6 -30 -15 -30 -20 0 -12 43
-12 56 0 5 6 41 11 79 13 l70 3 -39 18 c-42 19 -106 23 -106 6z"/>
<path d="M4820 1380 c0 -5 7 -10 16 -10 8 0 12 5 9 10 -3 6 -10 10 -16 10 -5
0 -9 -4 -9 -10z"/>
<path d="M1710 1371 c0 -41 152 -291 177 -291 17 0 9 16 -67 130 -32 47 -67
104 -79 128 -21 40 -31 52 -31 33z"/>
<path d="M685 1360 c3 -5 10 -10 16 -10 5 0 9 5 9 10 0 6 -7 10 -16 10 -8 0
-12 -4 -9 -10z"/>
<path d="M4935 1361 c3 -6 38 -11 78 -11 89 0 72 16 -20 19 -43 1 -63 -1 -58
-8z"/>
<path d="M140 1340 c0 -5 5 -10 10 -10 6 0 10 5 10 10 0 6 -4 10 -10 10 -5 0
-10 -4 -10 -10z"/>
<path d="M530 1340 c0 -5 5 -10 10 -10 6 0 10 5 10 10 0 6 -4 10 -10 10 -5 0
-10 -4 -10 -10z"/>
<path d="M5652 1338 c6 -18 28 -21 28 -4 0 9 -7 16 -16 16 -9 0 -14 -5 -12
-12z"/>
<path d="M953 1333 c-7 -3 -13 -9 -13 -14 0 -5 44 -9 98 -9 62 0 102 -4 110
-12 6 -6 15 -8 19 -4 16 16 -32 36 -86 37 -31 0 -69 2 -86 3 -16 2 -36 1 -42
-1z"/>
<path d="M5440 1330 c0 -5 5 -10 11 -10 6 0 25 -10 42 -23 48 -35 105 -62 113
-54 11 11 -5 22 -66 48 -30 12 -62 28 -71 36 -19 16 -29 17 -29 3z"/>
<path d="M240 1320 c0 -5 4 -10 9 -10 6 0 13 5 16 10 3 6 -1 10 -9 10 -9 0
-16 -4 -16 -10z"/>
<path d="M4836 1321 c-6 -10 54 -19 169 -27 44 -3 98 -10 120 -16 22 -5 63
-14 92 -19 29 -5 63 -13 76 -18 24 -9 37 -6 37 10 0 4 -17 9 -37 12 -21 3 -65
12 -98 21 -70 18 -120 24 -230 31 -44 3 -90 8 -102 10 -12 3 -24 1 -27 -4z"/>
<path d="M640 1300 c0 -6 7 -10 15 -10 8 0 15 2 15 4 0 2 -7 6 -15 10 -8 3
-15 1 -15 -4z"/>
<path d="M3120 1290 c0 -5 10 -15 23 -21 22 -12 22 -12 3 10 -21 23 -26 26
-26 11z"/>
<path d="M3955 1269 c-8 -23 -1 -34 14 -24 13 8 15 45 2 45 -5 0 -13 -9 -16
-21z"/>
<path d="M762 1248 c3 -7 24 -23 49 -36 24 -13 51 -30 60 -38 8 -8 21 -14 29
-14 21 0 -8 29 -54 52 -22 11 -46 27 -54 34 -17 17 -35 18 -30 2z"/>
<path d="M2130 1220 c0 -5 4 -10 10 -10 5 0 16 -15 24 -32 l14 -33 1 32 c1 22
-5 36 -18 43 -25 13 -31 13 -31 0z"/>
<path d="M3255 1210 c-8 -13 14 -42 25 -35 10 6 1 45 -11 45 -4 0 -11 -5 -14
-10z"/>
<path d="M5520 1212 c0 -13 49 -56 56 -49 4 4 1 14 -6 22 -17 21 -50 38 -50
27z"/>
<path d="M1146 1165 c-4 -12 -1 -16 11 -13 18 3 21 20 5 26 -5 1 -12 -4 -16
-13z"/>
<path d="M4990 1160 c0 -5 5 -10 10 -10 6 0 10 5 10 10 0 6 -4 10 -10 10 -5 0
-10 -4 -10 -10z"/>
<path d="M5080 1150 c0 -5 7 -10 15 -10 8 0 15 5 15 10 0 6 -7 10 -15 10 -8 0
-15 -4 -15 -10z"/>
<path d="M960 1120 c37 -32 52 -38 44 -17 -5 14 -56 47 -71 47 -4 -1 8 -14 27
-30z"/>
<path d="M5195 1141 c-7 -12 12 -24 25 -16 11 7 4 25 -10 25 -5 0 -11 -4 -15
-9z"/>
<path d="M1071 1114 c26 -28 79 -60 78 -47 0 11 -79 73 -92 73 -6 0 0 -12 14
-26z"/>
<path d="M2180 1137 c0 -16 31 -67 41 -67 6 0 6 6 0 18 -15 27 -40 58 -41 49z"/>
<path d="M420 1097 c-25 -12 -84 -38 -132 -56 -49 -19 -88 -38 -88 -42 0 -12
27 -11 35 1 3 6 15 10 26 10 10 0 27 4 37 10 39 22 127 60 138 60 6 0 22 9 35
20 33 27 7 25 -51 -3z"/>
<path d="M5318 1103 c7 -3 16 -2 19 1 4 3 -2 6 -13 5 -11 0 -14 -3 -6 -6z"/>
<path d="M5414 1075 c24 -18 59 -20 54 -2 -3 6 -20 13 -39 15 -32 2 -33 1 -15
-13z"/>
<path d="M624 1060 c-24 -9 -41 -30 -26 -30 6 0 20 9 33 20 26 21 25 23 -7 10z"/>
<path d="M5485 1060 c3 -5 13 -10 21 -10 8 0 14 5 14 10 0 6 -9 10 -21 10 -11
0 -17 -4 -14 -10z"/>
<path d="M2230 1054 c0 -13 62 -94 72 -94 4 0 8 3 8 8 -1 12 -80 98 -80 86z"/>
<path d="M5560 1031 c0 -11 108 -27 117 -17 11 10 0 14 -59 20 -34 4 -58 2
-58 -3z"/>
<path d="M540 1020 c0 -5 4 -10 9 -10 6 0 13 5 16 10 3 6 -1 10 -9 10 -9 0
-16 -4 -16 -10z"/>
<path d="M495 1010 c-3 -5 -14 -10 -24 -10 -10 0 -24 -7 -31 -15 -16 -19 -2
-19 44 0 20 9 34 20 31 25 -8 13 -12 13 -20 0z"/>
<path d="M4430 999 c0 -11 -5 -30 -11 -41 -7 -13 -8 -23 -1 -30 12 -12 26 12
35 60 5 24 3 32 -8 32 -8 0 -15 -9 -15 -21z"/>
<path d="M115 978 c-27 -11 -58 -24 -67 -29 -10 -5 -25 -9 -33 -9 -11 0 -15
-11 -15 -36 l0 -37 22 33 c18 25 39 38 93 56 39 13 71 24 73 24 1 0 2 5 2 10
0 14 -18 11 -75 -12z"/>
<path d="M1120 991 c0 -5 7 -11 15 -15 8 -3 15 -1 15 3 0 5 -7 11 -15 15 -8 3
-15 1 -15 -3z"/>
<path d="M5070 956 c0 -9 5 -16 10 -16 6 0 10 4 10 9 0 6 -4 13 -10 16 -5 3
-10 -1 -10 -9z"/>
<path d="M312 938 c-44 -15 -60 -24 -52 -32 7 -7 14 -6 22 2 7 7 19 12 28 12
9 0 34 9 56 20 51 25 25 25 -54 -2z"/>
<path d="M5280 953 c0 -5 4 -13 8 -18 9 -11 25 -59 42 -122 13 -52 34 -58 24
-8 -9 48 -51 149 -63 153 -6 2 -11 0 -11 -5z"/>
<path d="M647 915 c6 -48 -6 -61 -57 -68 -31 -3 -30 -4 11 -5 25 -1 50 3 57
10 16 16 15 60 -2 84 -13 17 -14 15 -9 -21z"/>
<path d="M2411 933 c8 -10 24 -29 37 -43 12 -14 22 -33 22 -42 0 -10 7 -18 15
-18 8 0 15 4 15 9 0 15 -79 111 -91 111 -7 0 -6 -6 2 -17z"/>
<path d="M520 930 c-74 -17 -155 -41 -164 -50 -16 -16 0 -22 66 -26 35 -2 78
-6 96 -9 19 -4 32 -2 32 5 0 5 -12 10 -27 11 -122 3 -124 32 -3 45 74 7 88 13
69 25 -16 10 -20 10 -69 -1z"/>
<path d="M4450 901 c0 -12 -5 -40 -12 -64 -6 -24 -8 -52 -4 -63 7 -17 9 -17
18 6 13 34 19 128 7 135 -5 4 -9 -3 -9 -14z"/>
<path d="M195 899 c-11 -4 -39 -13 -62 -19 -24 -6 -43 -16 -43 -22 0 -11 9 -9
89 20 29 11 49 22 45 24 -5 3 -18 2 -29 -3z"/>
<path d="M882 901 c-8 -5 -12 -20 -9 -37 4 -27 5 -28 12 -6 4 13 16 22 27 22
11 0 18 5 16 13 -6 15 -29 20 -46 8z"/>
<path d="M35 840 c-8 -13 15 -13 35 0 12 8 11 10 -7 10 -12 0 -25 -4 -28 -10z"/>
<path d="M993 818 c24 -57 45 -154 79 -363 6 -33 22 -118 36 -190 14 -72 27
-147 30 -168 2 -20 8 -40 13 -43 17 -10 22 28 9 80 -11 46 -33 144 -45 204 -7
33 -11 60 -20 127 -4 33 -11 65 -16 71 -5 6 -14 44 -20 85 -6 41 -18 91 -25
112 -8 20 -14 51 -14 67 0 21 -5 30 -16 30 -9 0 -13 -6 -11 -12z"/>
<path d="M10 800 c0 -6 5 -19 12 -29 9 -15 8 -24 -5 -45 -20 -30 -21 -37 -4
-30 7 2 21 20 32 39 18 35 18 36 -3 55 -24 22 -32 25 -32 10z"/>
<path d="M5600 805 c0 -12 75 -75 78 -65 2 6 -7 19 -20 30 -28 25 -58 43 -58
35z"/>
<path d="M4482 678 c2 -85 7 -123 15 -125 13 -5 16 80 6 190 -9 105 -24 61
-21 -65z"/>
<path d="M5046 792 c-2 -4 11 -39 30 -77 18 -39 34 -71 34 -72 0 -9 -29 2
-112 40 -164 77 -195 89 -214 85 -15 -3 -12 -7 15 -21 19 -9 39 -17 44 -17 6
0 18 -6 26 -13 9 -7 36 -20 61 -27 25 -8 71 -29 102 -47 52 -30 108 -44 108
-25 0 4 -12 30 -25 57 -45 91 -25 100 25 12 16 -29 30 -66 30 -84 0 -40 28
-57 79 -50 20 3 55 2 78 -2 23 -4 47 -5 54 -1 16 10 -61 23 -133 22 l-58 0 0
34 c0 75 -118 228 -144 186z"/>
<path d="M3173 690 c-88 -84 -118 -120 -98 -120 4 0 114 109 173 173 69 74 25
44 -75 -53z"/>
<path d="M890 768 c0 -19 18 -43 25 -36 9 9 -4 48 -16 48 -5 0 -9 -6 -9 -12z"/>
<path d="M145 759 c-11 -17 3 -23 53 -24 46 -1 178 -17 296 -35 56 -9 76 -7
64 5 -9 9 -49 17 -138 26 -47 6 -116 16 -155 24 -83 18 -112 19 -120 4z"/>
<path d="M1632 750 c7 -10 14 -18 15 -16 6 6 -9 36 -18 36 -5 0 -4 -9 3 -20z"/>
<path d="M1085 723 c3 -10 9 -30 12 -45 8 -43 25 -33 17 10 -8 44 -12 52 -26
52 -6 0 -7 -8 -3 -17z"/>
<path d="M1170 721 c0 -6 6 -11 13 -12 30 -2 69 -11 108 -24 46 -17 78 -20 64
-6 -9 8 -72 27 -120 36 -11 2 -30 7 -42 11 -14 4 -23 2 -23 -5z"/>
<path d="M920 704 c0 -8 5 -12 10 -9 6 4 8 11 5 16 -9 14 -15 11 -15 -7z"/>
<path d="M4760 691 c0 -5 9 -11 20 -14 24 -6 27 8 4 17 -21 8 -24 8 -24 -3z"/>
<path d="M1370 671 c0 -11 26 -22 34 -14 3 3 3 10 0 14 -7 12 -34 11 -34 0z"/>
<path d="M1432 649 c2 -7 10 -15 17 -17 8 -3 12 1 9 9 -2 7 -10 15 -17 17 -8
3 -12 -1 -9 -9z"/>
<path d="M941 628 c-1 -15 4 -30 9 -33 12 -7 12 12 0 40 -8 18 -9 17 -9 -7z"/>
<path d="M1114 600 c8 -63 18 -115 27 -130 12 -22 11 24 -1 91 -12 62 -33 94
-26 39z"/>
<path d="M4690 580 c0 -6 4 -10 9 -10 5 0 23 -24 39 -52 16 -29 44 -69 62 -88
60 -65 83 -100 86 -132 2 -18 13 -42 24 -52 18 -18 21 -19 35 -5 28 28 69 249
47 249 -5 0 -15 -28 -21 -62 -34 -179 -32 -174 -47 -153 -8 10 -14 28 -14 38
0 11 -37 63 -82 116 -44 53 -88 108 -97 123 -16 28 -41 45 -41 28z"/>
<path d="M961 555 c0 -16 6 -59 14 -94 9 -35 17 -78 20 -95 2 -17 10 -53 18
-81 8 -27 24 -86 36 -130 24 -88 36 -113 48 -102 6 7 -6 61 -37 162 -5 17 -19
71 -31 120 -12 50 -26 99 -30 110 -5 11 -11 34 -13 50 -3 17 -9 44 -14 60
l-10 30 -1 -30z"/>
<path d="M1590 545 c0 -8 5 -15 10 -15 6 0 10 7 10 15 0 8 -4 15 -10 15 -5 0
-10 -7 -10 -15z"/>
<path d="M1645 541 c-3 -5 -1 -12 5 -16 5 -3 10 1 10 9 0 18 -6 21 -15 7z"/>
<path d="M3182 538 c-7 -7 -12 -16 -12 -21 0 -5 7 -1 16 8 9 9 14 18 12 20 -2
3 -10 -1 -16 -7z"/>
<path d="M5416 525 c15 -23 15 -27 -5 -60 -12 -20 -21 -46 -20 -58 0 -21 1
-21 10 3 6 13 16 31 23 40 33 38 26 100 -10 100 -12 0 -11 -5 2 -25z"/>
<path d="M4511 478 c-1 -27 4 -48 9 -48 12 0 12 47 0 75 -6 15 -9 8 -9 -27z"/>
<path d="M3135 489 c-11 -17 1 -21 15 -4 8 9 8 15 2 15 -6 0 -14 -5 -17 -11z"/>
<path d="M4601 464 c-22 -82 -25 -107 -11 -102 20 6 42 91 31 120 -8 21 -9 20
-20 -18z"/>
<path d="M5117 422 c-47 -47 -56 -62 -38 -62 12 0 101 89 101 101 0 18 -17 8
-63 -39z"/>
<path d="M1146 442 c-3 -5 -3 -20 0 -33 14 -66 24 -138 24 -175 0 -39 22 -86
32 -68 3 5 -1 43 -9 84 -8 41 -18 101 -22 132 -7 58 -15 77 -25 60z"/>
<path d="M340 420 c0 -5 7 -7 15 -4 8 4 15 8 15 10 0 2 -7 4 -15 4 -8 0 -15
-4 -15 -10z"/>
<path d="M2711 414 c0 -11 3 -14 6 -6 3 7 2 16 -1 19 -3 4 -6 -2 -5 -13z"/>
<path d="M288 359 c-38 -19 -57 -39 -38 -39 21 0 91 41 85 50 -4 6 -7 10 -8 9
-1 -1 -19 -10 -39 -20z"/>
<path d="M2335 370 c3 -5 8 -10 11 -10 2 0 4 5 4 10 0 6 -5 10 -11 10 -5 0 -7
-4 -4 -10z"/>
<path d="M2722 340 c0 -14 2 -19 5 -12 2 6 2 18 0 25 -3 6 -5 1 -5 -13z"/>
<path d="M3973 323 c-7 -20 -8 -35 -2 -38 12 -8 21 17 17 47 -3 21 -4 20 -15
-9z"/>
<path d="M2380 301 c32 -64 84 -135 88 -123 3 10 -94 162 -104 162 -3 0 5 -18
16 -39z"/>
<path d="M5345 278 c-10 -35 -28 -89 -41 -120 -12 -32 -18 -58 -13 -58 13 0
32 49 52 135 1 6 5 15 8 20 8 12 21 85 16 85 -2 0 -11 -28 -22 -62z"/>
<path d="M2721 234 c0 -11 3 -14 6 -6 3 7 2 16 -1 19 -3 4 -6 -2 -5 -13z"/>
<path d="M4205 225 c-14 -69 -15 -80 -6 -65 12 19 25 90 17 90 -3 0 -8 -11
-11 -25z"/>
<path d="M4032 190 c0 -14 2 -19 5 -12 2 6 2 18 0 25 -3 6 -5 1 -5 -13z"/>
<path d="M300 171 c-19 -16 -32 -32 -28 -36 8 -8 78 43 78 56 0 16 -15 10 -50
-20z"/>
<path d="M2733 155 c0 -22 2 -30 4 -17 2 12 2 30 0 40 -3 9 -5 -1 -4 -23z"/>
<path d="M4175 120 c-4 -12 -5 -24 -2 -27 3 -2 8 5 12 17 4 12 5 24 2 27 -3 2
-8 -5 -12 -17z"/>
<path d="M5340 61 c-15 -29 -12 -33 10 -14 21 19 26 33 10 33 -5 0 -14 -9 -20
-19z"/>
</g>
</svg>
